<svg width="41" height="29" fill="none" xmlns="http://www.w3.org/2000/svg"><path d="M40.651 5.786a1.223 1.223 0 0 0-1.046-.544h-27.85L11 3.274c-.191-.645-.451-1.196-.78-1.653-.327-.457-.676-.78-1.045-.968A4.624 4.624 0 0 0 8.21.27a3.426 3.426 0 0 0-.82-.1H1.77c-.355 0-.656.12-.902.362S.5 1.083.5 1.46c0 .215.055.423.164.625.11.201.267.356.472.463.205.108.417.162.635.162h5.62c.109 0 .212.013.307.04.096.027.226.141.39.343.164.201.3.504.41.907l5.883 16.153c.054.161.143.316.267.464.123.148.266.262.43.342.164.081.342.122.533.122h17.72c.272 0 .525-.081.758-.242.232-.162.39-.363.471-.605l6.276-13.258c.137-.43.075-.827-.185-1.19ZM32.428 18.5H16.637L12.453 7.822H37.72L32.428 18.5Zm-2.365 3.98a3.19 3.19 0 0 0-2.318.947c-.643.632-.964 1.392-.964 2.279s.322 1.646.964 2.278a3.187 3.187 0 0 0 2.317.947c.903 0 1.675-.315 2.318-.947.642-.632.964-1.391.964-2.278s-.322-1.647-.964-2.279a3.187 3.187 0 0 0-2.318-.947Zm-11.813 0c-.602 0-1.155.148-1.661.443a3.279 3.279 0 0 0-1.19 1.17 3.102 3.102 0 0 0-.43 1.613c0 .887.321 1.646.964 2.278a3.187 3.187 0 0 0 2.317.947c.902 0 1.675-.315 2.317-.947.643-.632.964-1.391.964-2.278 0-.215-.02-.43-.061-.645a2.838 2.838 0 0 0-.492-1.15 3.515 3.515 0 0 0-.903-.887 2.958 2.958 0 0 0-1.169-.484 3.614 3.614 0 0 0-.656-.06Z" fill="#3F4E65"/></svg>