<svg xmlns="http://www.w3.org/2000/svg" viewBox="0 0 432.084 432.084" style="enable-background:new 0 0 432.084 432.084" xml:space="preserve"><path style="fill:#29abe2" d="M333.632 60.458v208.716c0 9.025-7.317 16.342-16.342 16.342H16.342C7.317 285.515 0 278.199 0 269.173V60.458c0-10.329 8.373-18.703 18.703-18.703H314.93c10.329 0 18.702 8.373 18.702 18.703"/><path style="fill:#fff" d="M22.699 262.815V64.453h288.239v198.362H22.699"/><path style="fill:#269dc6" d="M206.766 310.491h-79.894v-24.979h79.894v24.979"/><path style="fill:gray" d="M127.074 152.979c-14.251 0-25.845-11.594-25.845-25.845s11.594-25.845 25.845-25.845 25.845 11.594 25.845 25.845-11.594 25.845-25.845 25.845m0-40.69c-8.186 0-14.845 6.659-14.845 14.845s6.659 14.845 14.845 14.845c8.185 0 14.845-6.659 14.845-14.845.001-8.186-6.659-14.845-14.845-14.845m79.489 110.716c-14.251 0-25.846-11.594-25.846-25.845s11.595-25.845 25.846-25.845 25.846 11.594 25.846 25.845-11.595 25.845-25.846 25.845m0-40.691c-8.185 0-14.846 6.66-14.846 14.845 0 8.186 6.661 14.845 14.846 14.845s14.846-6.659 14.846-14.845c0-8.185-6.66-14.845-14.846-14.845m-47.125 45.252-10.788-2.142 25.549-128.697 10.789 2.143-25.55 128.696"/><path style="fill:#29abe2" d="M266.829 326.833H66.812c0-4.512 1.834-8.598 4.785-11.557a16.325 16.325 0 0 1 11.557-4.785h167.333c9.025 0 16.342 7.318 16.342 16.342"/><path style="fill:#6ec6eb" d="M314.929 41.755H107.031l6.918 22.698h196.99v89.16h22.693V60.458c0-10.33-8.373-18.703-18.703-18.703"/><path style="fill:#fff" d="m128.551 112.361 7.986 26.203c3.286-2.725 5.383-6.837 5.383-11.43 0-7.688-5.874-14.029-13.369-14.773m182.387-47.908h-196.99l11.247 36.903c.62-.045 1.246-.068 1.878-.068 14.251 0 25.845 11.594 25.845 25.845 0 9.591-5.25 17.977-13.028 22.438l14.422 47.321 19.885-100.165 10.789 2.142-23.884 120.303 9.77 32.056a8.065 8.065 0 0 1 7.856-6.238h24.87l.763-22.079c-13.225-1.12-23.647-12.242-23.647-25.753 0-14.113 11.37-25.62 25.431-25.842l.612-17.705h104.178V64.453"/><path style="fill:#a9a9a9" d="M127.074 101.289c-.631 0-1.258.023-1.878.068l3.354 11.005c7.495.743 13.369 7.085 13.369 14.773 0 4.593-2.097 8.705-5.383 11.43l3.355 11.007c7.778-4.46 13.028-12.847 13.028-22.438.001-14.251-11.594-25.845-25.845-25.845"/><path style="fill:#fff" d="M205.767 182.336c-7.816.415-14.05 6.906-14.05 14.824 0 7.57 5.697 13.835 13.028 14.735l1.022-29.559"/><path style="fill:#a9a9a9" d="M206.148 171.318c-14.061.222-25.431 11.729-25.431 25.842 0 13.51 10.421 24.632 23.647 25.753l.381-11.018c-7.331-.899-13.028-7.164-13.028-14.735 0-7.918 6.233-14.409 14.05-14.824l.381-11.018m-31.949-74.591-19.885 100.165 6.79 22.281L184.988 98.87l-10.789-2.143"/><path style="fill:#6ec6eb" d="M170.669 310.491h-34.316l4.984 16.342h29.332v-16.342"/><path style="fill:#f9de58" d="M387.19 366.86H199.386l3.749-108.397 3.625-104.85h173.056l7.374 213.247"/><path style="fill:#d7c156" d="M254.931 258.463h-4.658V366.86h53.939l.346-10H262.99v-90.35c0-4.444-3.614-8.047-8.059-8.047"/><path style="fill:gray" d="M250.273 253.045v129.23c0 4.451-3.612 8.054-8.062 8.054h-63.48c-4.45 0-8.062-3.604-8.062-8.054v-129.23c0-4.45 3.612-8.054 8.062-8.054h63.48c4.45 0 8.062 3.603 8.062 8.054"/><path style="fill:#fff" d="M243.113 264.174v104.407h-65.282V264.174h65.282"/><circle style="fill:#4d4d4d" cx="210.471" cy="379.983" r="6.239"/><path style="fill:#86d359" d="M228.961 327.489c0-10.195-8.295-18.489-18.489-18.489-3.387 0-6.143-2.756-6.143-6.143s2.756-6.143 6.143-6.143h12.316v-12.346h-6.146V273.77h-12.346v11.681c-7.163 2.55-12.313 9.379-12.313 17.406 0 10.195 8.294 18.489 18.489 18.489 3.387 0 6.143 2.756 6.143 6.143s-2.756 6.143-6.143 6.143h-12.316v12.346h6.141v10.6h12.346v-11.682c7.164-2.548 12.318-9.378 12.318-17.407"/><path style="fill:#fff" d="M250.273 366.86v15.414c0 4.451-3.612 8.054-8.062 8.054h8.062V366.86"/><path style="fill:#a9a9a9" d="M242.211 244.991h-52.79l5.846 19.183h47.846v104.407h-16.03l6.627 21.748h8.501c4.45 0 8.062-3.604 8.062-8.054v-129.23c0-4.451-3.612-8.054-8.062-8.054"/><path style="fill:#fff" d="m212.833 321.818 2.761 9.06a6.109 6.109 0 0 0 1.021-3.389 6.152 6.152 0 0 0-3.782-5.671m30.28-57.644h-47.846l6.781 22.251a18.27 18.27 0 0 1 2.249-.973v-11.681h12.346v10.598h6.146v12.346h-12.316a6.133 6.133 0 0 0-4.642 2.123l3.031 9.948c.513.14 1.054.214 1.611.214 10.195 0 18.489 8.294 18.489 18.489 0 6.926-3.834 12.959-9.487 16.122l7.609 24.97h16.03l-.001-104.407"/><path style="fill:#ade18e" d="m208.861 308.786 3.971 13.032a6.152 6.152 0 0 1 3.782 5.671 6.111 6.111 0 0 1-1.021 3.389l3.88 12.734c5.653-3.163 9.487-9.197 9.487-16.122 0-10.195-8.295-18.489-18.489-18.489a6.204 6.204 0 0 1-1.61-.215m7.781-35.015h-12.346v11.681a18.65 18.65 0 0 0-2.249.973l3.782 12.413a6.13 6.13 0 0 1 4.642-2.123h12.316v-12.346h-6.146l.001-10.598"/><path style="fill:#f9de58" d="M40.154 292.125h54.483v64.528H40.154z"/><path style="fill:#e0bf20" d="M80.346 292.125h14.291v64.309H80.346zm-40.192 0H47.3v64.309h-7.146z"/><path style="fill:#f9de58" d="M63.054 348.209h54.483v11.262H63.054z"/><path style="fill:#e0bf20" d="M103.246 348.209h14.291v11.224h-14.291zm-40.192 0H70.2v11.224h-7.146z"/><path style="fill:#f9de58" d="M18.001 367.612h54.483v11.262H18.001z"/><path style="fill:#e0bf20" d="M58.194 367.612h14.291v11.224H58.194zm-40.193 0h7.146v11.224h-7.146z"/><path style="fill:#fbe98e" d="M379.816 153.613H279.208l29.077 95.399.175-5.074h74.479l-3.123-90.325"/><path style="fill:#fc7a51" d="M432.08 390.058H303.41l.76-21.97 4.29-124.15h118.57l4.29 124.15.76 21.97"/><path style="fill:#fff" d="M427.034 243.94h-.004l4.29 124.148.76 21.97h-29.234l.001.001h29.237l-5.05-146.119"/><path style="fill:#fda589" d="M427.03 243.94h-68.719l41.488 136.118h31.935l.346 10-.76-21.97-4.29-124.15"/><path style="fill:#2be0c6" d="M336.688 166.758a5.5 5.5 0 0 0-5.5 5.5v19.977c0 20.695-16.295 38.109-36.984 38.599-21.313.505-38.812-16.686-38.812-37.887v-20.688a5.5 5.5 0 1 0-11 0v19.868c0 26.775 21.183 49.201 47.953 49.709 27.393.519 49.843-21.612 49.843-48.889v-20.688a5.5 5.5 0 0 0-5.5-5.501z"/><path style="fill:#f9de58" d="M338.011 258.926a5.5 5.5 0 0 1 5.5 5.5v11.893c0 13.558 11.095 25.012 24.651 24.783 13.172-.223 23.82-11.007 23.82-24.232v-12.444a5.5 5.5 0 1 1 11 0v11.783c0 19.241-15.15 35.431-34.386 35.886-19.815.469-36.085-15.514-36.085-35.225v-12.444a5.5 5.5 0 0 1 5.5-5.5z"/><path style="fill:#d97150" d="M399.799 380.058h-96.043l-.346 10h99.436l-3.047-10"/><path style="fill:#da937d" d="M431.734 380.058h-31.935l3.048 10.001 29.233-.001-.346-10"/></svg>